<?xml version="1.0" encoding="UTF-8"?>
<svg version="1.1" xmlns="http://www.w3.org/2000/svg" width="256" height="256">
<path d="M0,0 L4,0 L4,2 L5,2 L5,16 L4,16 L4,21 L3,21 L3,22 L2,22 L2,23 L1,23 L1,24 L-5,24 L-5,23 L-6,23 L-6,22 L-7,22 L-7,18 L-6,18 L-6,14 L-5,14 L-5,10 L-4,10 L-4,7 L-3,7 L-3,5 L-1,5 L-1,2 L0,2 Z M1,5 L1,14 L0,14 L0,16 L-1,16 L-1,19 L-3,19 L-3,20 L-4,20 L-4,21 L0,21 L0,19 L1,19 L1,16 L2,16 L2,5 Z " fill="#000000" transform="translate(65,39)"/>
<path d="M0,0 L5,0 L5,5 L4,5 L4,6 L3,6 L3,8 L2,8 L2,9 L1,9 L1,12 L0,12 L0,14 L-1,14 L-1,17 L-2,17 L-2,19 L-3,19 L-3,21 L-4,21 L-4,22 L-5,22 L-5,24 L-6,24 L-6,26 L-7,26 L-7,27 L-8,27 L-8,28 L-9,28 L-9,29 L-10,29 L-10,30 L-11,30 L-11,32 L-12,32 L-12,34 L-14,34 L-14,35 L-15,35 L-15,36 L-17,36 L-17,37 L-23,37 L-23,36 L-24,36 L-24,35 L-25,35 L-25,26 L-24,26 L-24,24 L-23,24 L-23,23 L-22,23 L-22,21 L-21,21 L-21,20 L-20,20 L-20,19 L-19,19 L-19,18 L-18,18 L-18,17 L-17,17 L-17,16 L-16,16 L-16,14 L-15,14 L-15,13 L-14,13 L-14,12 L-13,12 L-13,11 L-12,11 L-12,10 L-11,10 L-11,9 L-10,9 L-10,8 L-9,8 L-9,7 L-7,7 L-7,6 L-6,6 L-6,5 L-5,5 L-5,4 L-4,4 L-4,3 L-3,3 L-3,2 L-1,2 L-1,1 L0,1 Z M-6,10 L-6,11 L-5,11 L-5,13 L-4,13 L-4,10 Z M-8,11 L-8,12 L-10,12 L-10,13 L-11,13 L-11,14 L-12,14 L-12,16 L-13,16 L-13,17 L-14,17 L-14,18 L-15,18 L-15,19 L-16,19 L-16,21 L-15,21 L-15,20 L-14,20 L-14,19 L-13,19 L-13,18 L-12,18 L-12,17 L-9,17 L-9,16 L-8,16 L-8,19 L-9,19 L-9,22 L-8,22 L-8,20 L-7,20 L-7,18 L-6,18 L-6,16 L-5,16 L-5,14 L-6,14 L-6,11 Z M-10,23 L-10,24 L-9,24 L-9,23 Z M-18,26 L-18,27 L-19,27 L-19,30 L-18,30 L-18,29 L-17,29 L-17,28 L-16,28 L-16,27 L-17,27 L-17,26 Z M-16,26 L-16,27 L-15,27 L-15,26 Z " fill="#000000" transform="translate(220,73)"/>
<path d="M0,0 L1,0 L1,1 L5,1 L5,2 L7,2 L7,3 L10,3 L10,4 L12,4 L12,5 L14,5 L14,6 L15,6 L15,7 L16,7 L16,8 L17,8 L17,9 L18,9 L18,11 L19,11 L19,13 L20,13 L20,15 L21,15 L21,17 L22,17 L22,19 L23,19 L23,27 L24,27 L24,29 L23,29 L23,39 L22,39 L22,46 L21,46 L21,48 L20,48 L20,49 L19,49 L19,51 L18,51 L18,53 L17,53 L17,56 L16,56 L16,60 L18,60 L18,59 L19,59 L19,57 L20,57 L20,56 L21,56 L21,55 L22,55 L22,54 L23,54 L23,53 L24,53 L24,52 L26,52 L26,51 L27,51 L27,50 L29,50 L29,49 L38,49 L38,50 L39,50 L39,51 L40,51 L40,57 L41,57 L41,65 L43,65 L43,63 L44,63 L44,61 L45,61 L45,57 L46,57 L46,54 L47,54 L47,50 L48,50 L48,46 L49,46 L49,41 L50,41 L50,32 L51,32 L51,24 L52,24 L52,19 L53,19 L53,13 L52,13 L52,9 L51,9 L51,6 L52,6 L52,5 L53,5 L53,4 L57,4 L57,5 L58,5 L58,6 L59,6 L59,12 L60,12 L60,15 L61,15 L61,17 L62,17 L62,23 L64,23 L64,30 L65,30 L65,46 L64,46 L64,51 L62,51 L62,57 L61,57 L61,60 L67,60 L67,61 L74,61 L74,59 L73,59 L73,57 L72,57 L72,55 L71,55 L71,53 L70,53 L70,51 L69,51 L69,50 L68,50 L68,40 L69,40 L69,39 L74,39 L74,40 L75,40 L75,43 L76,43 L76,44 L78,44 L78,45 L79,45 L79,46 L81,46 L81,47 L83,47 L83,48 L85,48 L85,49 L87,49 L87,50 L88,50 L88,51 L89,51 L89,52 L90,52 L90,53 L91,53 L91,55 L92,55 L92,57 L93,57 L93,61 L95,61 L95,60 L100,60 L100,59 L101,59 L101,57 L102,57 L102,56 L103,56 L103,55 L108,55 L108,56 L110,56 L110,57 L111,57 L111,59 L112,59 L112,60 L113,60 L113,68 L112,68 L112,70 L113,70 L113,72 L114,72 L114,73 L115,73 L115,75 L116,75 L116,77 L117,77 L117,81 L116,81 L116,83 L115,83 L115,84 L114,84 L114,86 L113,86 L113,87 L112,87 L112,88 L111,88 L111,89 L110,89 L110,91 L109,91 L109,92 L108,92 L108,93 L105,93 L105,94 L102,94 L102,95 L99,95 L99,96 L96,96 L96,97 L93,97 L93,98 L91,98 L91,99 L89,99 L89,100 L85,100 L85,101 L78,101 L78,102 L76,102 L76,103 L75,103 L75,105 L76,105 L76,108 L77,108 L77,115 L76,115 L76,116 L74,116 L74,117 L58,117 L58,118 L53,118 L53,119 L50,119 L50,120 L44,120 L44,121 L39,121 L39,123 L35,123 L35,124 L31,124 L31,125 L27,125 L27,126 L22,126 L22,127 L18,127 L18,128 L10,128 L10,127 L7,127 L7,126 L3,126 L3,125 L-1,125 L-1,126 L-8,126 L-8,127 L-16,127 L-16,128 L-23,128 L-23,129 L-28,129 L-28,130 L-32,130 L-32,131 L-35,131 L-35,132 L-37,132 L-37,133 L-39,133 L-39,134 L-42,134 L-42,135 L-45,135 L-45,136 L-49,136 L-49,137 L-51,137 L-51,139 L-53,139 L-53,140 L-56,140 L-56,141 L-60,141 L-60,142 L-69,142 L-69,141 L-77,141 L-77,140 L-78,140 L-78,139 L-79,139 L-79,137 L-80,137 L-80,135 L-81,135 L-81,132 L-82,132 L-82,130 L-83,130 L-83,129 L-85,129 L-85,128 L-87,128 L-87,127 L-88,127 L-88,126 L-89,126 L-89,125 L-90,125 L-90,124 L-92,124 L-92,123 L-95,123 L-95,121 L-98,121 L-98,120 L-100,120 L-100,119 L-102,119 L-102,118 L-103,118 L-103,117 L-104,117 L-104,116 L-106,116 L-106,115 L-107,115 L-107,114 L-108,114 L-108,113 L-109,113 L-109,112 L-111,112 L-111,110 L-112,110 L-112,109 L-113,109 L-113,104 L-114,104 L-114,99 L-115,99 L-115,98 L-116,98 L-116,96 L-117,96 L-117,95 L-119,95 L-119,94 L-120,94 L-120,93 L-121,93 L-121,92 L-122,92 L-122,85 L-121,85 L-121,84 L-120,84 L-120,83 L-119,83 L-119,81 L-118,81 L-118,80 L-117,80 L-117,79 L-116,79 L-116,78 L-115,78 L-115,77 L-114,77 L-114,76 L-113,76 L-113,75 L-112,75 L-112,73 L-110,73 L-110,72 L-104,72 L-104,73 L-102,73 L-102,72 L-101,72 L-101,70 L-100,70 L-100,69 L-98,69 L-98,68 L-95,68 L-95,67 L-94,67 L-94,65 L-93,65 L-93,63 L-91,63 L-91,62 L-88,62 L-88,61 L-87,61 L-87,52 L-86,52 L-86,47 L-85,47 L-85,40 L-84,40 L-84,34 L-83,34 L-83,31 L-82,31 L-82,28 L-81,28 L-81,24 L-80,24 L-80,20 L-79,20 L-79,17 L-78,17 L-78,13 L-77,13 L-77,11 L-76,11 L-76,8 L-75,8 L-75,6 L-74,6 L-74,5 L-73,5 L-73,4 L-69,4 L-69,6 L-68,6 L-68,13 L-67,13 L-67,20 L-66,20 L-66,23 L-64,23 L-64,35 L-66,35 L-66,50 L-67,50 L-67,55 L-68,55 L-68,59 L-69,59 L-69,64 L-70,64 L-70,69 L-68,69 L-68,70 L-66,70 L-66,71 L-63,71 L-63,70 L-61,70 L-61,69 L-59,69 L-59,68 L-52,68 L-52,69 L-50,69 L-50,68 L-48,68 L-48,67 L-46,67 L-46,66 L-44,66 L-44,65 L-42,65 L-42,64 L-40,64 L-40,63 L-39,63 L-39,64 L-37,64 L-37,65 L-35,65 L-35,66 L-33,66 L-33,64 L-32,64 L-32,61 L-31,61 L-31,57 L-30,57 L-30,52 L-29,52 L-29,48 L-28,48 L-28,45 L-27,45 L-27,40 L-26,40 L-26,37 L-25,37 L-25,23 L-24,23 L-24,17 L-23,17 L-23,15 L-24,15 L-24,13 L-25,13 L-25,11 L-26,11 L-26,8 L-25,8 L-25,7 L-24,7 L-24,6 L-23,6 L-23,5 L-19,5 L-19,6 L-18,6 L-18,12 L-15,12 L-15,11 L-14,11 L-14,9 L-12,9 L-12,8 L-11,8 L-11,7 L-10,7 L-10,6 L-9,6 L-9,5 L-8,5 L-8,4 L-6,4 L-6,3 L-5,3 L-5,2 L-3,2 L-3,1 L0,1 Z M4,8 L4,9 L5,9 L5,11 L6,11 L6,14 L7,14 L7,23 L8,23 L8,32 L9,32 L9,44 L8,44 L8,55 L7,55 L7,61 L6,61 L6,64 L5,64 L5,67 L6,67 L6,65 L7,65 L7,63 L8,63 L8,62 L9,62 L9,60 L10,60 L10,56 L11,56 L11,53 L12,53 L12,51 L13,51 L13,49 L14,49 L14,47 L15,47 L15,45 L16,45 L16,43 L17,43 L17,35 L18,35 L18,22 L17,22 L17,19 L16,19 L16,18 L15,18 L15,16 L14,16 L14,14 L13,14 L13,13 L12,13 L12,12 L11,12 L11,11 L10,11 L10,9 L7,9 L7,8 Z M-74,15 L-74,16 L-75,16 L-75,18 L-76,18 L-76,23 L-77,23 L-77,25 L-76,25 L-76,28 L-77,28 L-77,30 L-76,30 L-76,29 L-75,29 L-75,25 L-73,25 L-73,23 L-72,23 L-72,20 L-71,20 L-71,19 L-72,19 L-72,16 L-73,16 L-73,15 Z M-1,14 L-1,15 L-4,15 L-4,16 L-6,16 L-6,17 L-10,17 L-10,31 L-11,31 L-11,37 L-12,37 L-12,45 L-13,45 L-13,48 L-14,48 L-14,51 L-15,51 L-15,55 L-16,55 L-16,57 L-17,57 L-17,61 L-18,61 L-18,63 L-19,63 L-19,65 L-20,65 L-20,68 L-21,68 L-21,69 L-18,69 L-18,68 L-15,68 L-15,67 L-13,67 L-13,68 L-10,68 L-10,69 L-2,69 L-2,66 L-1,66 L-1,64 L0,64 L0,61 L1,61 L1,57 L2,57 L2,48 L3,48 L3,29 L2,29 L2,20 L1,20 L1,15 L0,15 L0,14 Z M55,17 L55,19 L54,19 L54,37 L55,37 L55,33 L56,33 L56,38 L55,38 L55,45 L54,45 L54,49 L53,49 L53,53 L52,53 L52,57 L51,57 L51,60 L50,60 L50,63 L49,63 L49,66 L48,66 L48,68 L47,68 L47,70 L46,70 L46,75 L48,75 L48,73 L49,73 L49,72 L50,72 L50,70 L51,70 L51,69 L52,69 L52,67 L53,67 L53,65 L54,65 L54,62 L55,62 L55,59 L56,59 L56,53 L57,53 L57,48 L58,48 L58,41 L59,41 L59,37 L58,37 L58,32 L59,32 L59,30 L61,30 L61,29 L60,29 L60,28 L59,28 L59,27 L60,27 L60,25 L59,25 L59,23 L58,23 L58,20 L57,20 L57,17 Z M-19,19 L-19,21 L-20,21 L-20,23 L-21,23 L-21,27 L-22,27 L-22,32 L-23,32 L-23,37 L-24,37 L-24,43 L-23,43 L-23,41 L-22,41 L-22,39 L-21,39 L-21,34 L-20,34 L-20,33 L-19,33 L-19,24 L-18,24 L-18,21 L-17,21 L-17,19 Z M-72,24 L-72,25 L-71,25 L-71,24 Z M-71,29 L-71,32 L-70,32 L-70,29 Z M-72,33 L-72,37 L-73,37 L-73,40 L-74,40 L-74,45 L-75,45 L-75,47 L-76,47 L-76,50 L-77,50 L-77,53 L-78,53 L-78,55 L-79,55 L-79,56 L-80,56 L-80,55 L-81,55 L-81,56 L-82,56 L-82,67 L-81,67 L-81,71 L-80,71 L-80,75 L-78,75 L-78,72 L-77,72 L-77,69 L-76,69 L-76,65 L-75,65 L-75,61 L-74,61 L-74,55 L-73,55 L-73,52 L-72,52 L-72,41 L-71,41 L-71,33 Z M-79,34 L-79,35 L-80,35 L-80,39 L-81,39 L-81,47 L-80,47 L-80,43 L-79,43 L-79,38 L-78,38 L-78,34 Z M-21,40 L-21,45 L-22,45 L-22,47 L-23,47 L-23,51 L-24,51 L-24,55 L-25,55 L-25,61 L-26,61 L-26,64 L-25,64 L-25,62 L-24,62 L-24,60 L-23,60 L-23,57 L-22,57 L-22,55 L-21,55 L-21,52 L-20,52 L-20,48 L-19,48 L-19,45 L-18,45 L-18,44 L-20,44 L-20,40 Z M-81,50 L-81,51 L-80,51 L-80,50 Z M-79,50 L-79,51 L-78,51 L-78,50 Z M76,51 L76,52 L77,52 L77,54 L78,54 L78,55 L79,55 L79,59 L80,59 L80,61 L81,61 L81,63 L82,63 L82,65 L83,65 L83,67 L84,67 L84,68 L85,68 L85,69 L86,69 L86,71 L88,71 L88,61 L87,61 L87,59 L86,59 L86,56 L85,56 L85,55 L84,55 L84,54 L83,54 L83,53 L81,53 L81,52 L78,52 L78,51 Z M-81,53 L-81,54 L-79,54 L-79,53 Z M27,54 L27,55 L26,55 L26,56 L25,56 L25,57 L23,57 L23,59 L21,59 L21,60 L20,60 L20,64 L17,64 L17,65 L16,65 L16,67 L15,67 L15,66 L13,66 L13,67 L9,67 L9,68 L7,68 L7,69 L6,69 L6,70 L2,70 L2,71 L1,71 L1,72 L0,72 L0,75 L-1,75 L-1,76 L-8,76 L-8,77 L-10,77 L-10,76 L-9,76 L-9,75 L-8,75 L-8,71 L-13,71 L-13,72 L-14,72 L-14,73 L-16,73 L-16,75 L-18,75 L-18,76 L-29,76 L-29,75 L-32,75 L-32,73 L-33,73 L-33,72 L-39,72 L-39,71 L-44,71 L-44,72 L-49,72 L-49,73 L-52,73 L-52,75 L-55,75 L-55,76 L-62,76 L-62,75 L-67,75 L-67,76 L-69,76 L-69,77 L-70,77 L-70,83 L-71,83 L-71,85 L-73,85 L-73,84 L-75,84 L-75,85 L-79,85 L-79,86 L-81,86 L-81,85 L-83,85 L-83,87 L-82,87 L-82,88 L-77,88 L-77,87 L-72,87 L-72,88 L-71,88 L-71,91 L-70,91 L-70,89 L-61,89 L-61,93 L-59,93 L-59,92 L-55,92 L-55,91 L-54,91 L-54,92 L-49,92 L-49,93 L-48,93 L-48,95 L-49,95 L-49,96 L-42,96 L-42,97 L-38,97 L-38,96 L-36,96 L-36,95 L-33,95 L-33,96 L-32,96 L-32,97 L-29,97 L-29,96 L-25,96 L-25,97 L-21,97 L-21,98 L-17,98 L-17,99 L-11,99 L-11,98 L-7,98 L-7,97 L-5,97 L-5,96 L-3,96 L-3,95 L-1,95 L-1,94 L0,94 L0,93 L2,93 L2,92 L4,92 L4,91 L12,91 L12,89 L14,89 L14,88 L16,88 L16,87 L17,87 L17,85 L20,85 L20,84 L25,84 L25,83 L34,83 L34,82 L36,82 L36,81 L37,81 L37,80 L39,80 L39,79 L40,79 L40,78 L41,78 L41,79 L44,79 L44,76 L43,76 L43,73 L42,73 L42,72 L43,72 L43,69 L42,69 L42,68 L39,68 L39,67 L38,67 L38,66 L37,66 L37,64 L38,64 L38,56 L37,56 L37,55 L36,55 L36,54 L32,54 L32,55 L30,55 L30,54 Z M67,65 L67,66 L65,66 L65,67 L64,67 L64,68 L61,68 L61,69 L59,69 L59,70 L58,70 L58,72 L59,72 L59,73 L64,73 L64,72 L66,72 L66,71 L69,71 L69,70 L73,70 L73,69 L74,69 L74,67 L73,67 L73,66 L71,66 L71,65 Z M-92,66 L-92,67 L-93,67 L-93,70 L-94,70 L-94,72 L-95,72 L-95,73 L-94,73 L-94,75 L-93,75 L-93,76 L-89,76 L-89,77 L-87,77 L-87,78 L-86,78 L-86,77 L-85,77 L-85,73 L-86,73 L-86,72 L-87,72 L-87,68 L-88,68 L-88,67 L-89,67 L-89,66 Z M4,67 L4,68 L5,68 L5,67 Z M45,102 L45,104 L46,104 L46,102 Z " fill="#000000" transform="translate(128,78)"/>
</svg>
